{
	"asset":{
		"generator":"Khronos glTF Blender I/O v5.1.19",
		"version":"2.0"
	},
	"scene":0,
	"scenes":[
		{
			"name":"Scene",
			"nodes":[
				0
			]
		}
	],
	"nodes":[
		{
			"mesh":0,
			"name":"Plane.003",
			"scale":[
				8,
				8,
				3.3372011184692383
			]
		}
	],
	"materials":[
		{
			"doubleSided":true,
			"name":"Material.001",
			"pbrMetallicRoughness":{
				"baseColorTexture":{
					"index":0
				},
				"metallicFactor":0,
				"roughnessFactor":0.5
			}
		}
	],
	"meshes":[
		{
			"name":"Plane.003",
			"primitives":[
				{
					"attributes":{
						"POSITION":0,
						"NORMAL":1,
						"TEXCOORD_0":2
					},
					"indices":3,
					"material":0
				}
			]
		}
	],
	"textures":[
		{
			"sampler":0,
			"source":0
		}
	],
	"images":[
		{
			"mimeType":"image/png",
			"name":"river",
			"uri":"river.png"
		}
	],
	"accessors":[
		{
			"bufferView":0,
			"componentType":5126,
			"count":9226,
			"max":[
				1.0192391872406006,
				0.1484622210264206,
				1.0176894664764404
			],
			"min":[
				-1.0280264616012573,
				-0.10955898463726044,
				-0.9098204374313354
			],
			"type":"VEC3"
		},
		{
			"bufferView":1,
			"componentType":5126,
			"count":9226,
			"type":"VEC3"
		},
		{
			"bufferView":2,
			"componentType":5126,
			"count":9226,
			"type":"VEC2"
		},
		{
			"bufferView":3,
			"componentType":5123,
			"count":9888,
			"type":"SCALAR"
		}
	],
	"bufferViews":[
		{
			"buffer":0,
			"byteLength":110712,
			"byteOffset":0,
			"target":34962
		},
		{
			"buffer":0,
			"byteLength":110712,
			"byteOffset":110712,
			"target":34962
		},
		{
			"buffer":0,
			"byteLength":73808,
			"byteOffset":221424,
			"target":34962
		},
		{
			"buffer":0,
			"byteLength":19776,
			"byteOffset":295232,
			"target":34963
		}
	],
	"samplers":[
		{
			"magFilter":9729,
			"minFilter":9987
		}
	],
	"buffers":[
		{
			"byteLength":315008,
			"uri":"scene.bin"
		}
	]
}
