{
	"asset":{
		"generator":"Khronos glTF Blender I/O v5.1.19",
		"version":"2.0"
	},
	"scene":0,
	"scenes":[
		{
			"name":"Scene",
			"nodes":[
				0
			]
		}
	],
	"nodes":[
		{
			"mesh":0,
			"name":"Mountain_2_Depth_00",
			"rotation":[
				0.7071068286895752,
				0,
				0,
				0.7071068286895752
			],
			"scale":[
				0.009999999776482582,
				0.009999999776482582,
				0.009999999776482582
			]
		}
	],
	"materials":[
		{
			"doubleSided":true,
			"name":"Green.005",
			"pbrMetallicRoughness":{
				"baseColorTexture":{
					"index":0
				},
				"metallicFactor":0,
				"roughnessFactor":0.5
			}
		}
	],
	"meshes":[
		{
			"name":"Plane.008",
			"primitives":[
				{
					"attributes":{
						"POSITION":0,
						"NORMAL":1,
						"TEXCOORD_0":2
					},
					"indices":3,
					"material":0
				}
			]
		}
	],
	"textures":[
		{
			"sampler":0,
			"source":0
		}
	],
	"images":[
		{
			"mimeType":"image/png",
			"name":"ColorGrid",
			"uri":"ColorGrid.png"
		}
	],
	"accessors":[
		{
			"bufferView":0,
			"componentType":5126,
			"count":35999,
			"max":[
				11220,
				11220,
				1.6742663383483887
			],
			"min":[
				-11220,
				-11220,
				-1721.3175048828125
			],
			"type":"VEC3"
		},
		{
			"bufferView":1,
			"componentType":5126,
			"count":35999,
			"type":"VEC3"
		},
		{
			"bufferView":2,
			"componentType":5126,
			"count":35999,
			"type":"VEC2"
		},
		{
			"bufferView":3,
			"componentType":5123,
			"count":39318,
			"type":"SCALAR"
		}
	],
	"bufferViews":[
		{
			"buffer":0,
			"byteLength":431988,
			"byteOffset":0,
			"target":34962
		},
		{
			"buffer":0,
			"byteLength":431988,
			"byteOffset":431988,
			"target":34962
		},
		{
			"buffer":0,
			"byteLength":287992,
			"byteOffset":863976,
			"target":34962
		},
		{
			"buffer":0,
			"byteLength":78636,
			"byteOffset":1151968,
			"target":34963
		}
	],
	"samplers":[
		{
			"magFilter":9729,
			"minFilter":9987
		}
	],
	"buffers":[
		{
			"byteLength":1230604,
			"uri":"scene.bin"
		}
	]
}
