{
	"asset":{
		"generator":"Khronos glTF Blender I/O v5.1.19",
		"version":"2.0"
	},
	"scene":0,
	"scenes":[
		{
			"name":"Scene",
			"nodes":[
				0
			]
		}
	],
	"nodes":[
		{
			"mesh":0,
			"name":"input"
		}
	],
	"materials":[
		{
			"doubleSided":true,
			"name":"Material.001",
			"pbrMetallicRoughness":{
				"baseColorTexture":{
					"index":0
				},
				"metallicFactor":0,
				"roughnessFactor":0.5
			}
		}
	],
	"meshes":[
		{
			"name":"input",
			"primitives":[
				{
					"attributes":{
						"POSITION":0,
						"NORMAL":1,
						"TEXCOORD_0":2
					},
					"indices":3,
					"material":0
				}
			]
		}
	],
	"textures":[
		{
			"sampler":0,
			"source":0
		}
	],
	"images":[
		{
			"mimeType":"image/png",
			"name":"texture_0",
			"uri":"texture_0.png"
		}
	],
	"accessors":[
		{
			"bufferView":0,
			"componentType":5126,
			"count":124998,
			"max":[
				2.9489054679870605,
				5.012641429901123,
				1.83474600315094
			],
			"min":[
				-2.979386806488037,
				-0.047305770218372345,
				-1.8489362001419067
			],
			"type":"VEC3"
		},
		{
			"bufferView":1,
			"componentType":5126,
			"count":124998,
			"type":"VEC3"
		},
		{
			"bufferView":2,
			"componentType":5126,
			"count":124998,
			"type":"VEC2"
		},
		{
			"bufferView":3,
			"componentType":5125,
			"count":659187,
			"type":"SCALAR"
		}
	],
	"bufferViews":[
		{
			"buffer":0,
			"byteLength":1499976,
			"byteOffset":0,
			"target":34962
		},
		{
			"buffer":0,
			"byteLength":1499976,
			"byteOffset":1499976,
			"target":34962
		},
		{
			"buffer":0,
			"byteLength":999984,
			"byteOffset":2999952,
			"target":34962
		},
		{
			"buffer":0,
			"byteLength":2636748,
			"byteOffset":3999936,
			"target":34963
		}
	],
	"samplers":[
		{
			"magFilter":9729,
			"minFilter":9987
		}
	],
	"buffers":[
		{
			"byteLength":6636684,
			"uri":"scene.bin"
		}
	]
}
