{
	"asset":{
		"generator":"Khronos glTF Blender I/O v5.1.19",
		"version":"2.0"
	},
	"extensionsUsed":[
		"KHR_materials_specular",
		"KHR_materials_ior"
	],
	"scene":0,
	"scenes":[
		{
			"name":"Scene",
			"nodes":[
				0
			]
		}
	],
	"nodes":[
		{
			"mesh":0,
			"name":"Cube.001"
		}
	],
	"materials":[
		{
			"doubleSided":true,
			"extensions":{
				"KHR_materials_specular":{
					"specularFactor":0
				},
				"KHR_materials_ior":{
					"ior":1.4500000476837158
				}
			},
			"name":"Cliff",
			"pbrMetallicRoughness":{
				"baseColorTexture":{
					"index":0
				},
				"metallicFactor":0
			}
		}
	],
	"meshes":[
		{
			"name":"Cube.001",
			"primitives":[
				{
					"attributes":{
						"POSITION":0,
						"NORMAL":1,
						"TEXCOORD_0":2
					},
					"indices":3,
					"material":0
				}
			]
		}
	],
	"textures":[
		{
			"sampler":0,
			"source":0
		}
	],
	"images":[
		{
			"mimeType":"image/jpeg",
			"name":"Cliff Texture",
			"uri":"Cliff%20Texture.jpg"
		}
	],
	"accessors":[
		{
			"bufferView":0,
			"componentType":5126,
			"count":8092,
			"max":[
				18.452348709106445,
				13.10678768157959,
				12.91890811920166
			],
			"min":[
				-15.537023544311523,
				-5.146603107452393,
				-24.901155471801758
			],
			"type":"VEC3"
		},
		{
			"bufferView":1,
			"componentType":5126,
			"count":8092,
			"type":"VEC3"
		},
		{
			"bufferView":2,
			"componentType":5126,
			"count":8092,
			"type":"VEC2"
		},
		{
			"bufferView":3,
			"componentType":5123,
			"count":12768,
			"type":"SCALAR"
		}
	],
	"bufferViews":[
		{
			"buffer":0,
			"byteLength":97104,
			"byteOffset":0,
			"target":34962
		},
		{
			"buffer":0,
			"byteLength":97104,
			"byteOffset":97104,
			"target":34962
		},
		{
			"buffer":0,
			"byteLength":64736,
			"byteOffset":194208,
			"target":34962
		},
		{
			"buffer":0,
			"byteLength":25536,
			"byteOffset":258944,
			"target":34963
		}
	],
	"samplers":[
		{
			"magFilter":9729,
			"minFilter":9987
		}
	],
	"buffers":[
		{
			"byteLength":284480,
			"uri":"scene.bin"
		}
	]
}
