{
	"asset":{
		"generator":"Khronos glTF Blender I/O v5.1.19",
		"version":"2.0"
	},
	"scene":0,
	"scenes":[
		{
			"name":"Scene",
			"nodes":[
				0
			]
		}
	],
	"nodes":[
		{
			"mesh":0,
			"name":"Stone_road",
			"rotation":[
				0.7071068286895752,
				0,
				0,
				0.7071068286895752
			],
			"scale":[
				0.009999999776482582,
				0.009999999776482582,
				0.009999999776482582
			]
		}
	],
	"materials":[
		{
			"doubleSided":true,
			"name":"Material_main.032",
			"pbrMetallicRoughness":{
				"baseColorTexture":{
					"index":0
				},
				"metallicFactor":0,
				"roughnessFactor":0.800000011920929
			}
		}
	],
	"meshes":[
		{
			"name":"Sphere.013",
			"primitives":[
				{
					"attributes":{
						"POSITION":0,
						"NORMAL":1,
						"TEXCOORD_0":2
					},
					"indices":3,
					"material":0
				}
			]
		}
	],
	"textures":[
		{
			"sampler":0,
			"source":0
		}
	],
	"images":[
		{
			"mimeType":"image/png",
			"name":"Main_texture",
			"uri":"../../Textures/Main_texture.png"
		}
	],
	"accessors":[
		{
			"bufferView":0,
			"componentType":5126,
			"count":1215,
			"max":[
				93.78694915771484,
				166.7469940185547,
				0.4129515588283539
			],
			"min":[
				-86.13638305664062,
				-185.40013122558594,
				-9.180919647216797
			],
			"type":"VEC3"
		},
		{
			"bufferView":1,
			"componentType":5126,
			"count":1215,
			"type":"VEC3"
		},
		{
			"bufferView":2,
			"componentType":5126,
			"count":1215,
			"type":"VEC2"
		},
		{
			"bufferView":3,
			"componentType":5123,
			"count":6480,
			"type":"SCALAR"
		}
	],
	"bufferViews":[
		{
			"buffer":0,
			"byteLength":14580,
			"byteOffset":0,
			"target":34962
		},
		{
			"buffer":0,
			"byteLength":14580,
			"byteOffset":14580,
			"target":34962
		},
		{
			"buffer":0,
			"byteLength":9720,
			"byteOffset":29160,
			"target":34962
		},
		{
			"buffer":0,
			"byteLength":12960,
			"byteOffset":38880,
			"target":34963
		}
	],
	"samplers":[
		{
			"magFilter":9729,
			"minFilter":9987
		}
	],
	"buffers":[
		{
			"byteLength":51840,
			"uri":"scene.bin"
		}
	]
}
