{
	"asset":{
		"generator":"Khronos glTF Blender I/O v5.1.19",
		"version":"2.0"
	},
	"extensionsUsed":[
		"KHR_materials_specular"
	],
	"scene":0,
	"scenes":[
		{
			"name":"Scene",
			"nodes":[
				0
			]
		}
	],
	"nodes":[
		{
			"mesh":0,
			"name":"road_low_poli",
			"scale":[
				0.0010000000474974513,
				0.0010000000474974513,
				0.0010000000474974513
			]
		}
	],
	"materials":[
		{
			"doubleSided":true,
			"extensions":{
				"KHR_materials_specular":{
					"specularColorFactor":[
						0.0,
						0.0,
						0.0
					]
				}
			},
			"name":"road",
			"pbrMetallicRoughness":{
				"baseColorTexture":{
					"index":0
				},
				"metallicFactor":0,
				"roughnessFactor":0
			}
		},
		{
			"doubleSided":true,
			"extensions":{
				"KHR_materials_specular":{
					"specularColorFactor":[
						0.0,
						0.0,
						0.0
					]
				}
			},
			"name":"vert_6",
			"pbrMetallicRoughness":{
				"baseColorTexture":{
					"index":1
				},
				"metallicFactor":0,
				"roughnessFactor":0
			}
		},
		{
			"doubleSided":true,
			"extensions":{
				"KHR_materials_specular":{
					"specularColorFactor":[
						0.0,
						0.0,
						0.0
					]
				}
			},
			"name":"beams01",
			"pbrMetallicRoughness":{
				"baseColorTexture":{
					"index":2
				},
				"metallicFactor":0,
				"roughnessFactor":0
			}
		},
		{
			"doubleSided":true,
			"extensions":{
				"KHR_materials_specular":{
					"specularColorFactor":[
						0.0,
						0.0,
						0.0
					]
				}
			},
			"name":"rails",
			"pbrMetallicRoughness":{
				"baseColorTexture":{
					"index":3
				},
				"metallicFactor":0,
				"roughnessFactor":0
			}
		}
	],
	"meshes":[
		{
			"name":"Mesh.037",
			"primitives":[
				{
					"attributes":{
						"POSITION":0,
						"NORMAL":1,
						"TEXCOORD_0":2
					},
					"indices":3,
					"material":0
				},
				{
					"attributes":{
						"POSITION":4,
						"NORMAL":5,
						"TEXCOORD_0":6
					},
					"indices":7,
					"material":1
				},
				{
					"attributes":{
						"POSITION":8,
						"NORMAL":9,
						"TEXCOORD_0":10
					},
					"indices":11,
					"material":2
				},
				{
					"attributes":{
						"POSITION":12,
						"NORMAL":13,
						"TEXCOORD_0":14
					},
					"indices":15,
					"material":3
				}
			]
		}
	],
	"textures":[
		{
			"sampler":0,
			"source":0
		},
		{
			"sampler":0,
			"source":1
		},
		{
			"sampler":0,
			"source":2
		},
		{
			"sampler":0,
			"source":3
		}
	],
	"images":[
		{
			"mimeType":"image/jpeg",
			"name":"road_base_col",
			"uri":"road_base_col.jpg"
		},
		{
			"mimeType":"image/jpeg",
			"name":"baluster_base_col01",
			"uri":"baluster_base_col01.jpg"
		},
		{
			"mimeType":"image/jpeg",
			"name":"beams_base_col",
			"uri":"beams_base_col.jpg"
		},
		{
			"mimeType":"image/jpeg",
			"name":"rails_base_col01",
			"uri":"rails_base_col01.jpg"
		}
	],
	"accessors":[
		{
			"bufferView":0,
			"componentType":5126,
			"count":14168,
			"max":[
				999.9052124023438,
				200.93643188476562,
				402.469482421875
			],
			"min":[
				-999.9053955078125,
				-200.87472534179688,
				-402.4693603515625
			],
			"type":"VEC3"
		},
		{
			"bufferView":1,
			"componentType":5126,
			"count":14168,
			"type":"VEC3"
		},
		{
			"bufferView":2,
			"componentType":5126,
			"count":14168,
			"type":"VEC2"
		},
		{
			"bufferView":3,
			"componentType":5123,
			"count":56928,
			"type":"SCALAR"
		},
		{
			"bufferView":4,
			"componentType":5126,
			"count":6882,
			"max":[
				737.669189453125,
				682.9630737304688,
				392.41864013671875
			],
			"min":[
				-731.6566772460938,
				-98.23765563964844,
				-394.74981689453125
			],
			"type":"VEC3"
		},
		{
			"bufferView":5,
			"componentType":5126,
			"count":6882,
			"type":"VEC3"
		},
		{
			"bufferView":6,
			"componentType":5126,
			"count":6882,
			"type":"VEC2"
		},
		{
			"bufferView":7,
			"componentType":5123,
			"count":29736,
			"type":"SCALAR"
		},
		{
			"bufferView":8,
			"componentType":5126,
			"count":1060,
			"max":[
				974.775390625,
				170.40988159179688,
				317.265380859375
			],
			"min":[
				-982.9808959960938,
				-256.16009521484375,
				-317.2652587890625
			],
			"type":"VEC3"
		},
		{
			"bufferView":9,
			"componentType":5126,
			"count":1060,
			"type":"VEC3"
		},
		{
			"bufferView":10,
			"componentType":5126,
			"count":1060,
			"type":"VEC2"
		},
		{
			"bufferView":11,
			"componentType":5123,
			"count":4800,
			"type":"SCALAR"
		},
		{
			"bufferView":12,
			"componentType":5126,
			"count":5820,
			"max":[
				733.8980712890625,
				491.71148681640625,
				370.50286865234375
			],
			"min":[
				-730.2540283203125,
				128.38031005859375,
				-370.50274658203125
			],
			"type":"VEC3"
		},
		{
			"bufferView":13,
			"componentType":5126,
			"count":5820,
			"type":"VEC3"
		},
		{
			"bufferView":14,
			"componentType":5126,
			"count":5820,
			"type":"VEC2"
		},
		{
			"bufferView":15,
			"componentType":5123,
			"count":28224,
			"type":"SCALAR"
		}
	],
	"bufferViews":[
		{
			"buffer":0,
			"byteLength":170016,
			"byteOffset":0,
			"target":34962
		},
		{
			"buffer":0,
			"byteLength":170016,
			"byteOffset":170016,
			"target":34962
		},
		{
			"buffer":0,
			"byteLength":113344,
			"byteOffset":340032,
			"target":34962
		},
		{
			"buffer":0,
			"byteLength":113856,
			"byteOffset":453376,
			"target":34963
		},
		{
			"buffer":0,
			"byteLength":82584,
			"byteOffset":567232,
			"target":34962
		},
		{
			"buffer":0,
			"byteLength":82584,
			"byteOffset":649816,
			"target":34962
		},
		{
			"buffer":0,
			"byteLength":55056,
			"byteOffset":732400,
			"target":34962
		},
		{
			"buffer":0,
			"byteLength":59472,
			"byteOffset":787456,
			"target":34963
		},
		{
			"buffer":0,
			"byteLength":12720,
			"byteOffset":846928,
			"target":34962
		},
		{
			"buffer":0,
			"byteLength":12720,
			"byteOffset":859648,
			"target":34962
		},
		{
			"buffer":0,
			"byteLength":8480,
			"byteOffset":872368,
			"target":34962
		},
		{
			"buffer":0,
			"byteLength":9600,
			"byteOffset":880848,
			"target":34963
		},
		{
			"buffer":0,
			"byteLength":69840,
			"byteOffset":890448,
			"target":34962
		},
		{
			"buffer":0,
			"byteLength":69840,
			"byteOffset":960288,
			"target":34962
		},
		{
			"buffer":0,
			"byteLength":46560,
			"byteOffset":1030128,
			"target":34962
		},
		{
			"buffer":0,
			"byteLength":56448,
			"byteOffset":1076688,
			"target":34963
		}
	],
	"samplers":[
		{
			"magFilter":9729,
			"minFilter":9987
		}
	],
	"buffers":[
		{
			"byteLength":1133136,
			"uri":"scene.bin"
		}
	]
}
