{
	"asset":{
		"generator":"Khronos glTF Blender I/O v5.1.19",
		"version":"2.0"
	},
	"scene":0,
	"scenes":[
		{
			"name":"Scene",
			"nodes":[
				0
			]
		}
	],
	"nodes":[
		{
			"mesh":0,
			"name":"layer 1",
			"rotation":[
				0.7071068286895752,
				0,
				0,
				0.7071068286895752
			],
			"scale":[
				0.009999999776482582,
				0.009999999776482582,
				0.009999999776482582
			]
		}
	],
	"materials":[
		{
			"doubleSided":true,
			"name":"Material.007",
			"pbrMetallicRoughness":{
				"baseColorTexture":{
					"index":0
				},
				"metallicFactor":0,
				"roughnessFactor":0.5
			}
		}
	],
	"meshes":[
		{
			"name":"layer 1.009",
			"primitives":[
				{
					"attributes":{
						"POSITION":0,
						"NORMAL":1,
						"TEXCOORD_0":2
					},
					"indices":3,
					"material":0
				}
			]
		}
	],
	"textures":[
		{
			"sampler":0,
			"source":0
		}
	],
	"images":[
		{
			"mimeType":"image/png",
			"name":"gazebo",
			"uri":"gazebo.png"
		}
	],
	"accessors":[
		{
			"bufferView":0,
			"componentType":5126,
			"count":6866,
			"max":[
				50.000003814697266,
				50.000003814697266,
				-0.09999563544988632
			],
			"min":[
				-50.000003814697266,
				-50.0000114440918,
				-100.0999984741211
			],
			"type":"VEC3"
		},
		{
			"bufferView":1,
			"componentType":5126,
			"count":6866,
			"type":"VEC3"
		},
		{
			"bufferView":2,
			"componentType":5126,
			"count":6866,
			"type":"VEC2"
		},
		{
			"bufferView":3,
			"componentType":5123,
			"count":18846,
			"type":"SCALAR"
		}
	],
	"bufferViews":[
		{
			"buffer":0,
			"byteLength":82392,
			"byteOffset":0,
			"target":34962
		},
		{
			"buffer":0,
			"byteLength":82392,
			"byteOffset":82392,
			"target":34962
		},
		{
			"buffer":0,
			"byteLength":54928,
			"byteOffset":164784,
			"target":34962
		},
		{
			"buffer":0,
			"byteLength":37692,
			"byteOffset":219712,
			"target":34963
		}
	],
	"samplers":[
		{
			"magFilter":9729,
			"minFilter":9987
		}
	],
	"buffers":[
		{
			"byteLength":257404,
			"uri":"scene.bin"
		}
	]
}
