{
	"asset":{
		"generator":"Khronos glTF Blender I/O v5.1.19",
		"version":"2.0"
	},
	"scene":0,
	"scenes":[
		{
			"name":"Scene",
			"nodes":[
				0
			]
		}
	],
	"nodes":[
		{
			"mesh":0,
			"name":"tree.003",
			"rotation":[
				-0.70710688829422,
				-0.7071066498756409,
				0,
				3.0908619663705394e-08
			]
		}
	],
	"materials":[
		{
			"doubleSided":true,
			"name":"Material.048",
			"pbrMetallicRoughness":{
				"baseColorTexture":{
					"index":0
				},
				"metallicFactor":0,
				"roughnessFactor":0.5
			}
		}
	],
	"meshes":[
		{
			"name":"Cube.017",
			"primitives":[
				{
					"attributes":{
						"POSITION":0,
						"NORMAL":1,
						"TEXCOORD_0":2
					},
					"indices":3,
					"material":0
				}
			]
		}
	],
	"textures":[
		{
			"sampler":0,
			"source":0
		}
	],
	"images":[
		{
			"mimeType":"image/png",
			"name":"tree1",
			"uri":"tree1.png"
		}
	],
	"accessors":[
		{
			"bufferView":0,
			"componentType":5126,
			"count":4700,
			"max":[
				9.060124397277832,
				3.318944215774536,
				2.5059666633605957
			],
			"min":[
				-0.03598381578922272,
				-2.8114402294158936,
				-2.092742919921875
			],
			"type":"VEC3"
		},
		{
			"bufferView":1,
			"componentType":5126,
			"count":4700,
			"type":"VEC3"
		},
		{
			"bufferView":2,
			"componentType":5126,
			"count":4700,
			"type":"VEC2"
		},
		{
			"bufferView":3,
			"componentType":5123,
			"count":4938,
			"type":"SCALAR"
		}
	],
	"bufferViews":[
		{
			"buffer":0,
			"byteLength":56400,
			"byteOffset":0,
			"target":34962
		},
		{
			"buffer":0,
			"byteLength":56400,
			"byteOffset":56400,
			"target":34962
		},
		{
			"buffer":0,
			"byteLength":37600,
			"byteOffset":112800,
			"target":34962
		},
		{
			"buffer":0,
			"byteLength":9876,
			"byteOffset":150400,
			"target":34963
		}
	],
	"samplers":[
		{
			"magFilter":9729,
			"minFilter":9987
		}
	],
	"buffers":[
		{
			"byteLength":160276,
			"uri":"scene.bin"
		}
	]
}
