{
	"asset":{
		"generator":"Khronos glTF Blender I/O v5.1.19",
		"version":"2.0"
	},
	"extensionsUsed":[
		"KHR_materials_clearcoat",
		"KHR_materials_specular",
		"KHR_materials_ior"
	],
	"scene":0,
	"scenes":[
		{
			"name":"Scene",
			"nodes":[
				0
			]
		}
	],
	"nodes":[
		{
			"mesh":0,
			"name":"\u041a\u0430\u043c\u0435\u043d\u044c.005",
			"scale":[
				0.012696412391960621,
				0.012696412391960621,
				0.012696412391960621
			],
			"translation":[
				-2.4498162269592285,
				0.5848058462142944,
				0
			]
		}
	],
	"materials":[
		{
			"doubleSided":true,
			"extensions":{
				"KHR_materials_clearcoat":{
					"clearcoatRoughnessFactor":0
				},
				"KHR_materials_specular":{
					"specularColorFactor":[
						2.0,
						2.0,
						2.0
					]
				},
				"KHR_materials_ior":{
					"ior":1
				}
			},
			"name":"\u041a\u0430\u043c\u0435\u043d\u044c",
			"pbrMetallicRoughness":{
				"baseColorTexture":{
					"index":0
				},
				"metallicFactor":0
			}
		},
		{
			"doubleSided":true,
			"extensions":{
				"KHR_materials_clearcoat":{
					"clearcoatRoughnessFactor":0
				},
				"KHR_materials_specular":{
					"specularColorFactor":[
						2.0,
						2.0,
						2.0
					]
				},
				"KHR_materials_ior":{
					"ior":1
				}
			},
			"name":"\u0414\u0435\u0440\u0435\u0432\u043e",
			"pbrMetallicRoughness":{
				"baseColorTexture":{
					"index":1
				},
				"metallicFactor":0
			}
		},
		{
			"doubleSided":true,
			"extensions":{
				"KHR_materials_clearcoat":{
					"clearcoatRoughnessFactor":0
				},
				"KHR_materials_specular":{
					"specularColorFactor":[
						2.0,
						2.0,
						2.0
					]
				},
				"KHR_materials_ior":{
					"ior":1
				}
			},
			"name":"\u0422\u0440\u0430\u0432\u0430",
			"pbrMetallicRoughness":{
				"baseColorTexture":{
					"index":2
				},
				"metallicFactor":0
			}
		},
		{
			"doubleSided":true,
			"extensions":{
				"KHR_materials_clearcoat":{
					"clearcoatRoughnessFactor":0
				},
				"KHR_materials_specular":{
					"specularColorFactor":[
						2.0,
						2.0,
						2.0
					]
				},
				"KHR_materials_ior":{
					"ior":1
				}
			},
			"name":"\u0401\u043b\u043a\u0430",
			"pbrMetallicRoughness":{
				"baseColorTexture":{
					"index":3
				},
				"metallicFactor":0
			}
		},
		{
			"doubleSided":true,
			"name":"Material.003",
			"pbrMetallicRoughness":{
				"baseColorTexture":{
					"index":4
				},
				"metallicFactor":0,
				"roughnessFactor":0.5
			}
		}
	],
	"meshes":[
		{
			"name":"Mesh.005",
			"primitives":[
				{
					"attributes":{
						"POSITION":0,
						"NORMAL":1,
						"TEXCOORD_0":2
					},
					"indices":3,
					"material":0
				},
				{
					"attributes":{
						"POSITION":4,
						"NORMAL":5,
						"TEXCOORD_0":6
					},
					"indices":7,
					"material":1
				},
				{
					"attributes":{
						"POSITION":8,
						"NORMAL":9,
						"TEXCOORD_0":10
					},
					"indices":11,
					"material":2
				},
				{
					"attributes":{
						"POSITION":12,
						"NORMAL":13,
						"TEXCOORD_0":14
					},
					"indices":15,
					"material":3
				},
				{
					"attributes":{
						"POSITION":16,
						"NORMAL":17,
						"TEXCOORD_0":18
					},
					"indices":19,
					"material":4
				}
			]
		}
	],
	"textures":[
		{
			"sampler":0,
			"source":0
		},
		{
			"sampler":0,
			"source":1
		},
		{
			"sampler":0,
			"source":1
		},
		{
			"sampler":0,
			"source":2
		},
		{
			"sampler":0,
			"source":3
		}
	],
	"images":[
		{
			"mimeType":"image/jpeg",
			"name":"gray",
			"uri":"gray.jpg"
		},
		{
			"mimeType":"image/jpeg",
			"name":"light_green",
			"uri":"light_green.jpg"
		},
		{
			"mimeType":"image/jpeg",
			"name":"green",
			"uri":"green.jpg"
		},
		{
			"mimeType":"image/png",
			"name":"tree_trunk",
			"uri":"tree_trunk.png"
		}
	],
	"accessors":[
		{
			"bufferView":0,
			"componentType":5126,
			"count":2562,
			"max":[
				977.5858154296875,
				310.6912841796875,
				425.6957702636719
			],
			"min":[
				-398.9637756347656,
				-155.44085693359375,
				-290.801513671875
			],
			"type":"VEC3"
		},
		{
			"bufferView":1,
			"componentType":5126,
			"count":2562,
			"type":"VEC3"
		},
		{
			"bufferView":2,
			"componentType":5126,
			"count":2562,
			"type":"VEC2"
		},
		{
			"bufferView":3,
			"componentType":5123,
			"count":2622,
			"type":"SCALAR"
		},
		{
			"bufferView":4,
			"componentType":5126,
			"count":2376,
			"max":[
				867.7305297851562,
				241.05596923828125,
				388.3821716308594
			],
			"min":[
				-653.2548217773438,
				-112.86131286621094,
				-344.34991455078125
			],
			"type":"VEC3"
		},
		{
			"bufferView":5,
			"componentType":5126,
			"count":2376,
			"type":"VEC3"
		},
		{
			"bufferView":6,
			"componentType":5126,
			"count":2376,
			"type":"VEC2"
		},
		{
			"bufferView":7,
			"componentType":5123,
			"count":2430,
			"type":"SCALAR"
		},
		{
			"bufferView":8,
			"componentType":5126,
			"count":3019,
			"max":[
				889.3424072265625,
				-92.71743774414062,
				476.42779541015625
			],
			"min":[
				-195.72967529296875,
				-153.10546875,
				-12.68060302734375
			],
			"type":"VEC3"
		},
		{
			"bufferView":9,
			"componentType":5126,
			"count":3019,
			"type":"VEC3"
		},
		{
			"bufferView":10,
			"componentType":5126,
			"count":3019,
			"type":"VEC2"
		},
		{
			"bufferView":11,
			"componentType":5123,
			"count":4905,
			"type":"SCALAR"
		},
		{
			"bufferView":12,
			"componentType":5126,
			"count":1759,
			"max":[
				607.6529541015625,
				212.03939819335938,
				567.364013671875
			],
			"min":[
				-202.3978271484375,
				-137.6138458251953,
				-373.380126953125
			],
			"type":"VEC3"
		},
		{
			"bufferView":13,
			"componentType":5126,
			"count":1759,
			"type":"VEC3"
		},
		{
			"bufferView":14,
			"componentType":5126,
			"count":1759,
			"type":"VEC2"
		},
		{
			"bufferView":15,
			"componentType":5123,
			"count":2469,
			"type":"SCALAR"
		},
		{
			"bufferView":16,
			"componentType":5126,
			"count":2418,
			"max":[
				850.189453125,
				39.744659423828125,
				537.1694946289062
			],
			"min":[
				-618.4034423828125,
				-171.18154907226562,
				-341.2469177246094
			],
			"type":"VEC3"
		},
		{
			"bufferView":17,
			"componentType":5126,
			"count":2418,
			"type":"VEC3"
		},
		{
			"bufferView":18,
			"componentType":5126,
			"count":2418,
			"type":"VEC2"
		},
		{
			"bufferView":19,
			"componentType":5123,
			"count":2916,
			"type":"SCALAR"
		}
	],
	"bufferViews":[
		{
			"buffer":0,
			"byteLength":30744,
			"byteOffset":0,
			"target":34962
		},
		{
			"buffer":0,
			"byteLength":30744,
			"byteOffset":30744,
			"target":34962
		},
		{
			"buffer":0,
			"byteLength":20496,
			"byteOffset":61488,
			"target":34962
		},
		{
			"buffer":0,
			"byteLength":5244,
			"byteOffset":81984,
			"target":34963
		},
		{
			"buffer":0,
			"byteLength":28512,
			"byteOffset":87228,
			"target":34962
		},
		{
			"buffer":0,
			"byteLength":28512,
			"byteOffset":115740,
			"target":34962
		},
		{
			"buffer":0,
			"byteLength":19008,
			"byteOffset":144252,
			"target":34962
		},
		{
			"buffer":0,
			"byteLength":4860,
			"byteOffset":163260,
			"target":34963
		},
		{
			"buffer":0,
			"byteLength":36228,
			"byteOffset":168120,
			"target":34962
		},
		{
			"buffer":0,
			"byteLength":36228,
			"byteOffset":204348,
			"target":34962
		},
		{
			"buffer":0,
			"byteLength":24152,
			"byteOffset":240576,
			"target":34962
		},
		{
			"buffer":0,
			"byteLength":9810,
			"byteOffset":264728,
			"target":34963
		},
		{
			"buffer":0,
			"byteLength":21108,
			"byteOffset":274540,
			"target":34962
		},
		{
			"buffer":0,
			"byteLength":21108,
			"byteOffset":295648,
			"target":34962
		},
		{
			"buffer":0,
			"byteLength":14072,
			"byteOffset":316756,
			"target":34962
		},
		{
			"buffer":0,
			"byteLength":4938,
			"byteOffset":330828,
			"target":34963
		},
		{
			"buffer":0,
			"byteLength":29016,
			"byteOffset":335768,
			"target":34962
		},
		{
			"buffer":0,
			"byteLength":29016,
			"byteOffset":364784,
			"target":34962
		},
		{
			"buffer":0,
			"byteLength":19344,
			"byteOffset":393800,
			"target":34962
		},
		{
			"buffer":0,
			"byteLength":5832,
			"byteOffset":413144,
			"target":34963
		}
	],
	"samplers":[
		{
			"magFilter":9729,
			"minFilter":9987
		}
	],
	"buffers":[
		{
			"byteLength":418976,
			"uri":"scene.bin"
		}
	]
}
