{
	"asset":{
		"generator":"Khronos glTF Blender I/O v5.1.19",
		"version":"2.0"
	},
	"scene":0,
	"scenes":[
		{
			"name":"Scene",
			"nodes":[
				0
			]
		}
	],
	"nodes":[
		{
			"mesh":0,
			"name":"Waterfall_Foam_Icosphere.087",
			"rotation":[
				0.71806401014328,
				0.008399398066103458,
				0.0036655478179454803,
				0.6959167718887329
			],
			"scale":[
				0.861502468585968,
				0.8615023493766785,
				0.8615023493766785
			]
		}
	],
	"materials":[
		{
			"doubleSided":true,
			"name":"SimplePolygonPalette",
			"pbrMetallicRoughness":{
				"baseColorTexture":{
					"index":0
				},
				"metallicFactor":0
			}
		}
	],
	"meshes":[
		{
			"name":"Waterfall_Foam_Icosphere.087",
			"primitives":[
				{
					"attributes":{
						"POSITION":0,
						"NORMAL":1,
						"TEXCOORD_0":2
					},
					"indices":3,
					"material":0
				}
			]
		}
	],
	"textures":[
		{
			"sampler":0,
			"source":0
		}
	],
	"images":[
		{
			"mimeType":"image/png",
			"name":"SimplePolygon_MultiColorPalette",
			"uri":"SimplePolygon_MultiColorPalette.png"
		}
	],
	"accessors":[
		{
			"bufferView":0,
			"componentType":5126,
			"count":54717,
			"max":[
				15.37423324584961,
				18.16070556640625,
				6.689759254455566
			],
			"min":[
				-15.37423324584961,
				-18.16070556640625,
				-6.689759254455566
			],
			"type":"VEC3"
		},
		{
			"bufferView":1,
			"componentType":5126,
			"count":54717,
			"type":"VEC3"
		},
		{
			"bufferView":2,
			"componentType":5126,
			"count":54717,
			"type":"VEC2"
		},
		{
			"bufferView":3,
			"componentType":5123,
			"count":63867,
			"type":"SCALAR"
		}
	],
	"bufferViews":[
		{
			"buffer":0,
			"byteLength":656604,
			"byteOffset":0,
			"target":34962
		},
		{
			"buffer":0,
			"byteLength":656604,
			"byteOffset":656604,
			"target":34962
		},
		{
			"buffer":0,
			"byteLength":437736,
			"byteOffset":1313208,
			"target":34962
		},
		{
			"buffer":0,
			"byteLength":127734,
			"byteOffset":1750944,
			"target":34963
		}
	],
	"samplers":[
		{
			"magFilter":9729,
			"minFilter":9987
		}
	],
	"buffers":[
		{
			"byteLength":1878680,
			"uri":"scene.bin"
		}
	]
}
