{
	"asset":{
		"generator":"Khronos glTF Blender I/O v5.1.19",
		"version":"2.0"
	},
	"extensionsUsed":[
		"KHR_materials_emissive_strength",
		"KHR_materials_specular"
	],
	"scene":0,
	"scenes":[
		{
			"name":"Scene",
			"nodes":[
				0
			]
		}
	],
	"nodes":[
		{
			"mesh":0,
			"name":"stone_LP001",
			"scale":[
				0.009999999776482582,
				0.009999999776482582,
				0.009999999776482582
			]
		}
	],
	"materials":[
		{
			"doubleSided":true,
			"extensions":{
				"KHR_materials_specular":{
					"specularFactor":0,
					"specularColorFactor":[
						0.8999999761581421,
						0.8999999761581421,
						0.8999999761581421
					]
				}
			},
			"name":"Mat_Stone",
			"pbrMetallicRoughness":{
				"baseColorTexture":{
					"index":0
				},
				"metallicFactor":0,
				"roughnessFactor":0.858578622341156
			}
		},
		{
			"doubleSided":true,
			"emissiveFactor":[
				1,
				1,
				1
			],
			"emissiveTexture":{
				"index":1
			},
			"extensions":{
				"KHR_materials_emissive_strength":{
					"emissiveStrength":8.999999046325684
				},
				"KHR_materials_specular":{
					"specularFactor":0,
					"specularColorTexture":{
						"index":2
					}
				}
			},
			"name":"Mat_Sword",
			"pbrMetallicRoughness":{
				"baseColorTexture":{
					"index":3
				},
				"metallicFactor":0,
				"roughnessFactor":0.858578622341156
			}
		},
		{
			"alphaMode":"BLEND",
			"doubleSided":true,
			"emissiveFactor":[
				1,
				1,
				1
			],
			"extensions":{
				"KHR_materials_emissive_strength":{
					"emissiveStrength":9.999999046325684
				}
			},
			"name":"Mat_Grass",
			"pbrMetallicRoughness":{
				"baseColorTexture":{
					"index":4
				},
				"metallicFactor":0,
				"metallicRoughnessTexture":{
					"index":5
				}
			}
		}
	],
	"meshes":[
		{
			"name":"Mesh.051",
			"primitives":[
				{
					"attributes":{
						"POSITION":0,
						"NORMAL":1,
						"TEXCOORD_0":2
					},
					"indices":3,
					"material":0
				},
				{
					"attributes":{
						"POSITION":4,
						"NORMAL":5,
						"TEXCOORD_0":6
					},
					"indices":7,
					"material":1
				},
				{
					"attributes":{
						"POSITION":8,
						"NORMAL":9,
						"TEXCOORD_0":10
					},
					"indices":11,
					"material":2
				}
			]
		}
	],
	"textures":[
		{
			"sampler":0,
			"source":0
		},
		{
			"sampler":0,
			"source":1
		},
		{
			"sampler":0,
			"source":2
		},
		{
			"sampler":0,
			"source":3
		},
		{
			"sampler":0,
			"source":4
		},
		{
			"sampler":0,
			"source":5
		}
	],
	"images":[
		{
			"mimeType":"image/png",
			"name":"Mat_Stone_Base_color",
			"uri":"Mat_Stone_Base_color.png"
		},
		{
			"mimeType":"image/png",
			"name":"Mat_Sword_Emissive",
			"uri":"Mat_Sword_Emissive.png"
		},
		{
			"mimeType":"image/png",
			"name":"Mat_Sword_Metallic",
			"uri":"Mat_Sword_Metallic.png"
		},
		{
			"mimeType":"image/png",
			"name":"Mat_Sword_Base_color",
			"uri":"Mat_Sword_Base_color.png"
		},
		{
			"mimeType":"image/png",
			"name":"Grass_Base_color",
			"uri":"Grass_Base_color.png"
		},
		{
			"mimeType":"image/png",
			"name":"Image",
			"uri":"Image.png"
		}
	],
	"accessors":[
		{
			"bufferView":0,
			"componentType":5126,
			"count":2341,
			"max":[
				34.891788482666016,
				62.1759147644043,
				35.56915283203125
			],
			"min":[
				-40.52630615234375,
				-0.29300299286842346,
				-37.47920227050781
			],
			"type":"VEC3"
		},
		{
			"bufferView":1,
			"componentType":5126,
			"count":2341,
			"type":"VEC3"
		},
		{
			"bufferView":2,
			"componentType":5126,
			"count":2341,
			"type":"VEC2"
		},
		{
			"bufferView":3,
			"componentType":5123,
			"count":8868,
			"type":"SCALAR"
		},
		{
			"bufferView":4,
			"componentType":5126,
			"count":1319,
			"max":[
				27.816030502319336,
				108.48381042480469,
				3.5449206829071045
			],
			"min":[
				-2.634530544281006,
				2.910019874572754,
				-7.6747212409973145
			],
			"type":"VEC3"
		},
		{
			"bufferView":5,
			"componentType":5126,
			"count":1319,
			"type":"VEC3"
		},
		{
			"bufferView":6,
			"componentType":5126,
			"count":1319,
			"type":"VEC2"
		},
		{
			"bufferView":7,
			"componentType":5123,
			"count":3588,
			"type":"SCALAR"
		},
		{
			"bufferView":8,
			"componentType":5126,
			"count":2550,
			"max":[
				27.88062286376953,
				63.58302307128906,
				22.617279052734375
			],
			"min":[
				-21.10748291015625,
				5.664272308349609,
				-24.78101921081543
			],
			"type":"VEC3"
		},
		{
			"bufferView":9,
			"componentType":5126,
			"count":2550,
			"type":"VEC3"
		},
		{
			"bufferView":10,
			"componentType":5126,
			"count":2550,
			"type":"VEC2"
		},
		{
			"bufferView":11,
			"componentType":5123,
			"count":6780,
			"type":"SCALAR"
		}
	],
	"bufferViews":[
		{
			"buffer":0,
			"byteLength":28092,
			"byteOffset":0,
			"target":34962
		},
		{
			"buffer":0,
			"byteLength":28092,
			"byteOffset":28092,
			"target":34962
		},
		{
			"buffer":0,
			"byteLength":18728,
			"byteOffset":56184,
			"target":34962
		},
		{
			"buffer":0,
			"byteLength":17736,
			"byteOffset":74912,
			"target":34963
		},
		{
			"buffer":0,
			"byteLength":15828,
			"byteOffset":92648,
			"target":34962
		},
		{
			"buffer":0,
			"byteLength":15828,
			"byteOffset":108476,
			"target":34962
		},
		{
			"buffer":0,
			"byteLength":10552,
			"byteOffset":124304,
			"target":34962
		},
		{
			"buffer":0,
			"byteLength":7176,
			"byteOffset":134856,
			"target":34963
		},
		{
			"buffer":0,
			"byteLength":30600,
			"byteOffset":142032,
			"target":34962
		},
		{
			"buffer":0,
			"byteLength":30600,
			"byteOffset":172632,
			"target":34962
		},
		{
			"buffer":0,
			"byteLength":20400,
			"byteOffset":203232,
			"target":34962
		},
		{
			"buffer":0,
			"byteLength":13560,
			"byteOffset":223632,
			"target":34963
		}
	],
	"samplers":[
		{
			"magFilter":9729,
			"minFilter":9987
		}
	],
	"buffers":[
		{
			"byteLength":237192,
			"uri":"scene.bin"
		}
	]
}
