{
	"asset":{
		"generator":"Khronos glTF Blender I/O v5.1.19",
		"version":"2.0"
	},
	"scene":0,
	"scenes":[
		{
			"name":"Scene",
			"nodes":[
				11
			]
		}
	],
	"nodes":[
		{
			"name":"aiSkyDomeLight1"
		},
		{
			"mesh":0,
			"name":"Object_10.001"
		},
		{
			"mesh":1,
			"name":"Object_11.001"
		},
		{
			"name":"Object_6"
		},
		{
			"mesh":2,
			"name":"Object_7.001"
		},
		{
			"mesh":3,
			"name":"Object_8.001"
		},
		{
			"mesh":4,
			"name":"Object_9.001"
		},
		{
			"name":"pCylinder2"
		},
		{
			"children":[
				0,
				1,
				2,
				3,
				4,
				5,
				6,
				7
			],
			"name":"RootNode.001"
		},
		{
			"children":[
				8
			],
			"name":"Object_2"
		},
		{
			"children":[
				9
			],
			"name":"c42bc35d31284e0caed961e3361258cb.fbx",
			"rotation":[
				0.70710688829422,
				0,
				0,
				0.7071066498756409
			]
		},
		{
			"children":[
				10
			],
			"name":"Sketchfab_model.002",
			"rotation":[
				-0.70710688829422,
				0,
				0,
				0.7071066498756409
			],
			"scale":[
				0.0695023387670517,
				0.06950235366821289,
				0.06950235366821289
			]
		}
	],
	"materials":[
		{
			"doubleSided":true,
			"name":"aiStandardSurface3",
			"pbrMetallicRoughness":{
				"baseColorTexture":{
					"index":0
				},
				"metallicFactor":0,
				"roughnessFactor":0.6000000238418579
			}
		},
		{
			"doubleSided":true,
			"name":"aiStandardSurface1",
			"pbrMetallicRoughness":{
				"baseColorTexture":{
					"index":1
				},
				"metallicFactor":0,
				"roughnessFactor":0.6000000238418579
			}
		},
		{
			"doubleSided":true,
			"name":"aiStandardSurface5",
			"pbrMetallicRoughness":{
				"baseColorTexture":{
					"index":2
				},
				"metallicFactor":0,
				"roughnessFactor":0.6000000238418579
			}
		},
		{
			"doubleSided":true,
			"name":"aiStandardSurface2",
			"pbrMetallicRoughness":{
				"baseColorTexture":{
					"index":3
				},
				"metallicFactor":0,
				"roughnessFactor":0.6000000238418579
			}
		},
		{
			"doubleSided":true,
			"name":"aiStandardSurface4",
			"pbrMetallicRoughness":{
				"baseColorTexture":{
					"index":4
				},
				"metallicFactor":0,
				"roughnessFactor":0.6000000238418579
			}
		}
	],
	"meshes":[
		{
			"name":"pCylinder2_aiStandardSurface3_0",
			"primitives":[
				{
					"attributes":{
						"POSITION":0,
						"NORMAL":1,
						"TEXCOORD_0":2
					},
					"indices":3,
					"material":0
				}
			]
		},
		{
			"name":"pCylinder2_aiStandardSurface1_0",
			"primitives":[
				{
					"attributes":{
						"POSITION":4,
						"NORMAL":5,
						"TEXCOORD_0":6
					},
					"indices":7,
					"material":1
				}
			]
		},
		{
			"name":"pCylinder2_aiStandardSurface5_0",
			"primitives":[
				{
					"attributes":{
						"POSITION":8,
						"NORMAL":9,
						"TEXCOORD_0":10
					},
					"indices":11,
					"material":2
				}
			]
		},
		{
			"name":"pCylinder2_aiStandardSurface2_0",
			"primitives":[
				{
					"attributes":{
						"POSITION":12,
						"NORMAL":13,
						"TEXCOORD_0":14
					},
					"indices":15,
					"material":3
				}
			]
		},
		{
			"name":"pCylinder2_aiStandardSurface4_0",
			"primitives":[
				{
					"attributes":{
						"POSITION":16,
						"NORMAL":17,
						"TEXCOORD_0":18
					},
					"indices":19,
					"material":4
				}
			]
		}
	],
	"textures":[
		{
			"sampler":0,
			"source":0
		},
		{
			"sampler":0,
			"source":1
		},
		{
			"sampler":0,
			"source":2
		},
		{
			"sampler":0,
			"source":3
		},
		{
			"sampler":0,
			"source":4
		}
	],
	"images":[
		{
			"mimeType":"image/jpeg",
			"name":"aiStandardSurface3_baseColor",
			"uri":"aiStandardSurface3_baseColor.jpg"
		},
		{
			"mimeType":"image/jpeg",
			"name":"aiStandardSurface1_baseColor",
			"uri":"aiStandardSurface1_baseColor.jpg"
		},
		{
			"mimeType":"image/png",
			"name":"gandalf_staff",
			"uri":"gandalf_staff.png"
		},
		{
			"mimeType":"image/png",
			"name":"gandalf_hair",
			"uri":"gandalf_hair.png"
		},
		{
			"mimeType":"image/jpeg",
			"name":"aiStandardSurface4_baseColor",
			"uri":"aiStandardSurface4_baseColor.jpg"
		}
	],
	"accessors":[
		{
			"bufferView":0,
			"componentType":5126,
			"count":150,
			"max":[
				0.11991807073354721,
				5.545930862426758,
				1.176355004310608
			],
			"min":[
				-1.0893442630767822,
				3.678312301635742,
				-0.11810315400362015
			],
			"type":"VEC3"
		},
		{
			"bufferView":1,
			"componentType":5126,
			"count":150,
			"type":"VEC3"
		},
		{
			"bufferView":2,
			"componentType":5126,
			"count":150,
			"type":"VEC2"
		},
		{
			"bufferView":3,
			"componentType":5123,
			"count":576,
			"type":"SCALAR"
		},
		{
			"bufferView":4,
			"componentType":5126,
			"count":1014,
			"max":[
				1.4870229959487915,
				9.080462455749512,
				2.5277936458587646
			],
			"min":[
				-3.48702335357666,
				-0.012511768378317356,
				-2.527794361114502
			],
			"type":"VEC3"
		},
		{
			"bufferView":5,
			"componentType":5126,
			"count":1014,
			"type":"VEC3"
		},
		{
			"bufferView":6,
			"componentType":5126,
			"count":1014,
			"type":"VEC2"
		},
		{
			"bufferView":7,
			"componentType":5123,
			"count":3252,
			"type":"SCALAR"
		},
		{
			"bufferView":8,
			"componentType":5126,
			"count":52,
			"max":[
				-2.704658269882202,
				5.762413501739502,
				2.2125632762908936
			],
			"min":[
				-3.0792205333709717,
				-0.03966442123055458,
				1.7757742404937744
			],
			"type":"VEC3"
		},
		{
			"bufferView":9,
			"componentType":5126,
			"count":52,
			"type":"VEC3"
		},
		{
			"bufferView":10,
			"componentType":5126,
			"count":52,
			"type":"VEC2"
		},
		{
			"bufferView":11,
			"componentType":5123,
			"count":120,
			"type":"SCALAR"
		},
		{
			"bufferView":12,
			"componentType":5126,
			"count":85,
			"max":[
				0.20031116902828217,
				6.179375171661377,
				1.274712324142456
			],
			"min":[
				-2.1831111907958984,
				4.502267837524414,
				-1.4275723695755005
			],
			"type":"VEC3"
		},
		{
			"bufferView":13,
			"componentType":5126,
			"count":85,
			"type":"VEC3"
		},
		{
			"bufferView":14,
			"componentType":5126,
			"count":85,
			"type":"VEC2"
		},
		{
			"bufferView":15,
			"componentType":5123,
			"count":348,
			"type":"SCALAR"
		},
		{
			"bufferView":16,
			"componentType":5126,
			"count":42,
			"max":[
				0.04793696478009224,
				5.491405010223389,
				1.1229287385940552
			],
			"min":[
				-0.9573200345039368,
				3.678312301635742,
				-0.0038340557366609573
			],
			"type":"VEC3"
		},
		{
			"bufferView":17,
			"componentType":5126,
			"count":42,
			"type":"VEC3"
		},
		{
			"bufferView":18,
			"componentType":5126,
			"count":42,
			"type":"VEC2"
		},
		{
			"bufferView":19,
			"componentType":5123,
			"count":180,
			"type":"SCALAR"
		}
	],
	"bufferViews":[
		{
			"buffer":0,
			"byteLength":1800,
			"byteOffset":0,
			"target":34962
		},
		{
			"buffer":0,
			"byteLength":1800,
			"byteOffset":1800,
			"target":34962
		},
		{
			"buffer":0,
			"byteLength":1200,
			"byteOffset":3600,
			"target":34962
		},
		{
			"buffer":0,
			"byteLength":1152,
			"byteOffset":4800,
			"target":34963
		},
		{
			"buffer":0,
			"byteLength":12168,
			"byteOffset":5952,
			"target":34962
		},
		{
			"buffer":0,
			"byteLength":12168,
			"byteOffset":18120,
			"target":34962
		},
		{
			"buffer":0,
			"byteLength":8112,
			"byteOffset":30288,
			"target":34962
		},
		{
			"buffer":0,
			"byteLength":6504,
			"byteOffset":38400,
			"target":34963
		},
		{
			"buffer":0,
			"byteLength":624,
			"byteOffset":44904,
			"target":34962
		},
		{
			"buffer":0,
			"byteLength":624,
			"byteOffset":45528,
			"target":34962
		},
		{
			"buffer":0,
			"byteLength":416,
			"byteOffset":46152,
			"target":34962
		},
		{
			"buffer":0,
			"byteLength":240,
			"byteOffset":46568,
			"target":34963
		},
		{
			"buffer":0,
			"byteLength":1020,
			"byteOffset":46808,
			"target":34962
		},
		{
			"buffer":0,
			"byteLength":1020,
			"byteOffset":47828,
			"target":34962
		},
		{
			"buffer":0,
			"byteLength":680,
			"byteOffset":48848,
			"target":34962
		},
		{
			"buffer":0,
			"byteLength":696,
			"byteOffset":49528,
			"target":34963
		},
		{
			"buffer":0,
			"byteLength":504,
			"byteOffset":50224,
			"target":34962
		},
		{
			"buffer":0,
			"byteLength":504,
			"byteOffset":50728,
			"target":34962
		},
		{
			"buffer":0,
			"byteLength":336,
			"byteOffset":51232,
			"target":34962
		},
		{
			"buffer":0,
			"byteLength":360,
			"byteOffset":51568,
			"target":34963
		}
	],
	"samplers":[
		{
			"magFilter":9729,
			"minFilter":9987
		}
	],
	"buffers":[
		{
			"byteLength":51928,
			"uri":"scene.bin"
		}
	]
}
