{
	"asset":{
		"generator":"Khronos glTF Blender I/O v5.1.19",
		"version":"2.0"
	},
	"extensionsUsed":[
		"KHR_materials_sheen"
	],
	"scene":0,
	"scenes":[
		{
			"name":"Scene",
			"nodes":[
				0,
				1,
				2,
				3,
				4,
				5,
				6
			]
		}
	],
	"nodes":[
		{
			"mesh":0,
			"name":"Icosphere",
			"rotation":[
				0,
				-0.3039574921131134,
				0,
				0.9526855945587158
			],
			"translation":[
				-0.07835464179515839,
				0.09676051139831543,
				-0.16390091180801392
			]
		},
		{
			"mesh":1,
			"name":"Plane",
			"rotation":[
				0,
				-0.3039575219154358,
				0,
				0.9526855945587158
			],
			"scale":[
				1.4056837558746338,
				0.8668742179870605,
				1.4056837558746338
			],
			"translation":[
				-0.07570882141590118,
				-0.07226702570915222,
				-0.4464484453201294
			]
		},
		{
			"mesh":2,
			"name":"Icosphere.001",
			"rotation":[
				0,
				-0.3039574921131134,
				0,
				0.9526855945587158
			],
			"scale":[
				0.44343194365501404,
				0.5333605408668518,
				0.46365126967430115
			],
			"translation":[
				-0.11892233788967133,
				0.13629049062728882,
				-0.6133970618247986
			]
		},
		{
			"mesh":3,
			"name":"Cylinder",
			"rotation":[
				0,
				-0.3039574921131134,
				0,
				0.9526855945587158
			],
			"scale":[
				0.027582727372646332,
				0.17192183434963226,
				0.027582727372646332
			],
			"translation":[
				0.587526261806488,
				0.35588303208351135,
				-0.12235775589942932
			]
		},
		{
			"mesh":4,
			"name":"Cone",
			"rotation":[
				0,
				-0.3039574921131134,
				0,
				0.9526855945587158
			],
			"scale":[
				0.1755187064409256,
				0.23423835635185242,
				0.1755187064409256
			],
			"translation":[
				0.5852062702178955,
				0.5959272980690002,
				-0.1198522299528122
			]
		},
		{
			"mesh":5,
			"name":"Cone.001",
			"rotation":[
				0,
				-0.3039574921131134,
				0,
				0.9526855945587158
			],
			"scale":[
				0.0828607976436615,
				0.16558535397052765,
				0.0828607976436615
			],
			"translation":[
				0.4236328601837158,
				0.4317392408847809,
				-0.09014375507831573
			]
		},
		{
			"mesh":6,
			"name":"Cylinder.001",
			"rotation":[
				0,
				-0.3039574921131134,
				0,
				0.9526855945587158
			],
			"scale":[
				0.018703356385231018,
				0.1165771409869194,
				0.018703356385231018
			],
			"translation":[
				0.289497971534729,
				0.19142886996269226,
				-0.1900419443845749
			]
		}
	],
	"materials":[
		{
			"doubleSided":true,
			"name":"Material.001",
			"pbrMetallicRoughness":{
				"baseColorTexture":{
					"index":0
				},
				"metallicFactor":0,
				"roughnessFactor":0.5
			}
		},
		{
			"doubleSided":true,
			"name":"Material",
			"pbrMetallicRoughness":{
				"baseColorTexture":{
					"index":1
				},
				"metallicFactor":0,
				"roughnessFactor":0.5
			}
		},
		{
			"doubleSided":true,
			"extensions":{
				"KHR_materials_sheen":{
					"sheenColorFactor":[
						1.0,
						1.0,
						1.0
					],
					"sheenRoughnessFactor":0.5
				}
			},
			"name":"Material.002",
			"pbrMetallicRoughness":{
				"baseColorTexture":{
					"index":2
				},
				"metallicFactor":0,
				"roughnessFactor":0.5
			}
		},
		{
			"doubleSided":true,
			"name":"Material.010",
			"pbrMetallicRoughness":{
				"baseColorTexture":{
					"index":3
				},
				"metallicFactor":0,
				"roughnessFactor":0.5
			}
		},
		{
			"doubleSided":true,
			"name":"Material.007",
			"pbrMetallicRoughness":{
				"baseColorTexture":{
					"index":4
				},
				"metallicFactor":0,
				"roughnessFactor":0.5
			}
		},
		{
			"doubleSided":true,
			"name":"Material.009",
			"pbrMetallicRoughness":{
				"baseColorTexture":{
					"index":5
				},
				"metallicFactor":0,
				"roughnessFactor":0.5
			}
		},
		{
			"doubleSided":true,
			"name":"Material.011",
			"pbrMetallicRoughness":{
				"baseColorTexture":{
					"index":6
				},
				"metallicFactor":0,
				"roughnessFactor":0.5
			}
		}
	],
	"meshes":[
		{
			"name":"Icosphere",
			"primitives":[
				{
					"attributes":{
						"POSITION":0,
						"NORMAL":1,
						"TEXCOORD_0":2,
						"COLOR_0":3,
						"COLOR_1":4
					},
					"indices":5,
					"material":0
				}
			]
		},
		{
			"name":"Plane",
			"primitives":[
				{
					"attributes":{
						"POSITION":6,
						"NORMAL":7,
						"TEXCOORD_0":8
					},
					"indices":9,
					"material":1
				}
			]
		},
		{
			"name":"Icosphere.002",
			"primitives":[
				{
					"attributes":{
						"POSITION":10,
						"NORMAL":11,
						"TEXCOORD_0":12
					},
					"indices":13,
					"material":2
				}
			]
		},
		{
			"name":"Cylinder",
			"primitives":[
				{
					"attributes":{
						"POSITION":14,
						"NORMAL":15,
						"TEXCOORD_0":16
					},
					"indices":17,
					"material":3
				}
			]
		},
		{
			"name":"Cone.001",
			"primitives":[
				{
					"attributes":{
						"POSITION":18,
						"NORMAL":19,
						"TEXCOORD_0":20
					},
					"indices":21,
					"material":4
				}
			]
		},
		{
			"name":"Cone.002",
			"primitives":[
				{
					"attributes":{
						"POSITION":22,
						"NORMAL":23,
						"TEXCOORD_0":24
					},
					"indices":25,
					"material":5
				}
			]
		},
		{
			"name":"Cylinder.001",
			"primitives":[
				{
					"attributes":{
						"POSITION":26,
						"NORMAL":27,
						"TEXCOORD_0":28
					},
					"indices":29,
					"material":6
				}
			]
		}
	],
	"textures":[
		{
			"sampler":0,
			"source":0
		},
		{
			"sampler":0,
			"source":1
		},
		{
			"sampler":0,
			"source":2
		},
		{
			"sampler":0,
			"source":3
		},
		{
			"sampler":0,
			"source":4
		},
		{
			"sampler":0,
			"source":5
		},
		{
			"sampler":0,
			"source":6
		}
	],
	"images":[
		{
			"mimeType":"image/png",
			"name":"rock_baked",
			"uri":"rock_baked.png"
		},
		{
			"mimeType":"image/png",
			"name":"water_baked",
			"uri":"water_baked.png"
		},
		{
			"mimeType":"image/png",
			"name":"snow_baked",
			"uri":"snow_baked.png"
		},
		{
			"mimeType":"image/png",
			"name":"tree_trunk_baked",
			"uri":"tree_trunk_baked.png"
		},
		{
			"mimeType":"image/png",
			"name":"tree_leaves_baked",
			"uri":"tree_leaves_baked.png"
		},
		{
			"mimeType":"image/png",
			"name":"trees_leaves_2_baked",
			"uri":"trees_leaves_2_baked.png"
		},
		{
			"mimeType":"image/png",
			"name":"tree_trunk_2_baked",
			"uri":"tree_trunk_2_baked.png"
		}
	],
	"accessors":[
		{
			"bufferView":0,
			"componentType":5126,
			"count":5256,
			"max":[
				0.972319483757019,
				0.5014770030975342,
				0.9825985431671143
			],
			"min":[
				-0.9791882634162903,
				-1.1008235216140747,
				-0.997941255569458
			],
			"type":"VEC3"
		},
		{
			"bufferView":1,
			"componentType":5126,
			"count":5256,
			"type":"VEC3"
		},
		{
			"bufferView":2,
			"componentType":5126,
			"count":5256,
			"type":"VEC2"
		},
		{
			"bufferView":3,
			"componentType":5121,
			"count":5256,
			"normalized":true,
			"type":"VEC4"
		},
		{
			"bufferView":4,
			"componentType":5123,
			"count":5256,
			"normalized":true,
			"type":"VEC4"
		},
		{
			"bufferView":5,
			"componentType":5123,
			"count":5256,
			"type":"SCALAR"
		},
		{
			"bufferView":6,
			"componentType":5126,
			"count":1101,
			"max":[
				0.773679792881012,
				0.12625397741794586,
				1.0632655620574951
			],
			"min":[
				-0.5478661060333252,
				-4.257432460784912,
				-0.49888938665390015
			],
			"type":"VEC3"
		},
		{
			"bufferView":7,
			"componentType":5126,
			"count":1101,
			"type":"VEC3"
		},
		{
			"bufferView":8,
			"componentType":5126,
			"count":1101,
			"type":"VEC2"
		},
		{
			"bufferView":9,
			"componentType":5123,
			"count":1182,
			"type":"SCALAR"
		},
		{
			"bufferView":10,
			"componentType":5126,
			"count":960,
			"max":[
				1.6215612888336182,
				0.6195368766784668,
				0.811992347240448
			],
			"min":[
				-1.0791605710983276,
				-0.9815603494644165,
				-0.9998617768287659
			],
			"type":"VEC3"
		},
		{
			"bufferView":11,
			"componentType":5126,
			"count":960,
			"type":"VEC3"
		},
		{
			"bufferView":12,
			"componentType":5126,
			"count":960,
			"type":"VEC2"
		},
		{
			"bufferView":13,
			"componentType":5123,
			"count":960,
			"type":"SCALAR"
		},
		{
			"bufferView":14,
			"componentType":5126,
			"count":192,
			"max":[
				1,
				1,
				1
			],
			"min":[
				-1,
				-1,
				-1
			],
			"type":"VEC3"
		},
		{
			"bufferView":15,
			"componentType":5126,
			"count":192,
			"type":"VEC3"
		},
		{
			"bufferView":16,
			"componentType":5126,
			"count":192,
			"type":"VEC2"
		},
		{
			"bufferView":17,
			"componentType":5123,
			"count":372,
			"type":"SCALAR"
		},
		{
			"bufferView":18,
			"componentType":5126,
			"count":2226,
			"max":[
				0.9180474877357483,
				0.7969870567321777,
				0.9754869341850281
			],
			"min":[
				-0.9664208292961121,
				-1.1235145330429077,
				-0.94251549243927
			],
			"type":"VEC3"
		},
		{
			"bufferView":19,
			"componentType":5126,
			"count":2226,
			"type":"VEC3"
		},
		{
			"bufferView":20,
			"componentType":5126,
			"count":2226,
			"type":"VEC2"
		},
		{
			"bufferView":21,
			"componentType":5123,
			"count":3138,
			"type":"SCALAR"
		},
		{
			"bufferView":22,
			"componentType":5126,
			"count":2258,
			"max":[
				4.994851112365723,
				0.7969870567321777,
				0.9754869341850281
			],
			"min":[
				3.1103827953338623,
				-1.1235145330429077,
				-0.94251549243927
			],
			"type":"VEC3"
		},
		{
			"bufferView":23,
			"componentType":5126,
			"count":2258,
			"type":"VEC3"
		},
		{
			"bufferView":24,
			"componentType":5126,
			"count":2258,
			"type":"VEC2"
		},
		{
			"bufferView":25,
			"componentType":5123,
			"count":3138,
			"type":"SCALAR"
		},
		{
			"bufferView":26,
			"componentType":5126,
			"count":257,
			"max":[
				28.12116241455078,
				1,
				1
			],
			"min":[
				26.12116241455078,
				-1,
				-1
			],
			"type":"VEC3"
		},
		{
			"bufferView":27,
			"componentType":5126,
			"count":257,
			"type":"VEC3"
		},
		{
			"bufferView":28,
			"componentType":5126,
			"count":257,
			"type":"VEC2"
		},
		{
			"bufferView":29,
			"componentType":5123,
			"count":372,
			"type":"SCALAR"
		}
	],
	"bufferViews":[
		{
			"buffer":0,
			"byteLength":63072,
			"byteOffset":0,
			"target":34962
		},
		{
			"buffer":0,
			"byteLength":63072,
			"byteOffset":63072,
			"target":34962
		},
		{
			"buffer":0,
			"byteLength":42048,
			"byteOffset":126144,
			"target":34962
		},
		{
			"buffer":0,
			"byteLength":21024,
			"byteOffset":168192,
			"target":34962
		},
		{
			"buffer":0,
			"byteLength":42048,
			"byteOffset":189216,
			"target":34962
		},
		{
			"buffer":0,
			"byteLength":10512,
			"byteOffset":231264,
			"target":34963
		},
		{
			"buffer":0,
			"byteLength":13212,
			"byteOffset":241776,
			"target":34962
		},
		{
			"buffer":0,
			"byteLength":13212,
			"byteOffset":254988,
			"target":34962
		},
		{
			"buffer":0,
			"byteLength":8808,
			"byteOffset":268200,
			"target":34962
		},
		{
			"buffer":0,
			"byteLength":2364,
			"byteOffset":277008,
			"target":34963
		},
		{
			"buffer":0,
			"byteLength":11520,
			"byteOffset":279372,
			"target":34962
		},
		{
			"buffer":0,
			"byteLength":11520,
			"byteOffset":290892,
			"target":34962
		},
		{
			"buffer":0,
			"byteLength":7680,
			"byteOffset":302412,
			"target":34962
		},
		{
			"buffer":0,
			"byteLength":1920,
			"byteOffset":310092,
			"target":34963
		},
		{
			"buffer":0,
			"byteLength":2304,
			"byteOffset":312012,
			"target":34962
		},
		{
			"buffer":0,
			"byteLength":2304,
			"byteOffset":314316,
			"target":34962
		},
		{
			"buffer":0,
			"byteLength":1536,
			"byteOffset":316620,
			"target":34962
		},
		{
			"buffer":0,
			"byteLength":744,
			"byteOffset":318156,
			"target":34963
		},
		{
			"buffer":0,
			"byteLength":26712,
			"byteOffset":318900,
			"target":34962
		},
		{
			"buffer":0,
			"byteLength":26712,
			"byteOffset":345612,
			"target":34962
		},
		{
			"buffer":0,
			"byteLength":17808,
			"byteOffset":372324,
			"target":34962
		},
		{
			"buffer":0,
			"byteLength":6276,
			"byteOffset":390132,
			"target":34963
		},
		{
			"buffer":0,
			"byteLength":27096,
			"byteOffset":396408,
			"target":34962
		},
		{
			"buffer":0,
			"byteLength":27096,
			"byteOffset":423504,
			"target":34962
		},
		{
			"buffer":0,
			"byteLength":18064,
			"byteOffset":450600,
			"target":34962
		},
		{
			"buffer":0,
			"byteLength":6276,
			"byteOffset":468664,
			"target":34963
		},
		{
			"buffer":0,
			"byteLength":3084,
			"byteOffset":474940,
			"target":34962
		},
		{
			"buffer":0,
			"byteLength":3084,
			"byteOffset":478024,
			"target":34962
		},
		{
			"buffer":0,
			"byteLength":2056,
			"byteOffset":481108,
			"target":34962
		},
		{
			"buffer":0,
			"byteLength":744,
			"byteOffset":483164,
			"target":34963
		}
	],
	"samplers":[
		{
			"magFilter":9729,
			"minFilter":9987
		}
	],
	"buffers":[
		{
			"byteLength":483908,
			"uri":"scene.bin"
		}
	]
}
