{
	"asset":{
		"generator":"Khronos glTF Blender I/O v5.1.19",
		"version":"2.0"
	},
	"scene":0,
	"scenes":[
		{
			"name":"Scene",
			"nodes":[
				0
			]
		}
	],
	"nodes":[
		{
			"mesh":0,
			"name":"Cube_Cube.003"
		}
	],
	"materials":[
		{
			"doubleSided":true,
			"name":"snow",
			"pbrMetallicRoughness":{
				"baseColorTexture":{
					"index":0
				},
				"metallicFactor":0,
				"roughnessFactor":0.6900347471237183
			}
		},
		{
			"doubleSided":true,
			"name":"snow_dark",
			"pbrMetallicRoughness":{
				"baseColorTexture":{
					"index":1
				},
				"metallicFactor":0,
				"roughnessFactor":0.6900347471237183
			}
		},
		{
			"doubleSided":true,
			"name":"mountain_light2",
			"pbrMetallicRoughness":{
				"baseColorTexture":{
					"index":2
				},
				"metallicFactor":0,
				"roughnessFactor":0.6900347471237183
			}
		},
		{
			"doubleSided":true,
			"name":"mountain_light",
			"pbrMetallicRoughness":{
				"baseColorTexture":{
					"index":3
				},
				"metallicFactor":0,
				"roughnessFactor":0.6900347471237183
			}
		},
		{
			"doubleSided":true,
			"name":"mountain",
			"pbrMetallicRoughness":{
				"baseColorTexture":{
					"index":4
				},
				"metallicFactor":0,
				"roughnessFactor":0.6900347471237183
			}
		},
		{
			"doubleSided":true,
			"name":"cave_crystal",
			"pbrMetallicRoughness":{
				"baseColorTexture":{
					"index":5
				},
				"metallicFactor":0,
				"roughnessFactor":0.6900347471237183
			}
		}
	],
	"meshes":[
		{
			"name":"Cube_Cube.003",
			"primitives":[
				{
					"attributes":{
						"POSITION":0,
						"NORMAL":1,
						"TEXCOORD_0":2
					},
					"indices":3,
					"material":0
				},
				{
					"attributes":{
						"POSITION":4,
						"NORMAL":5,
						"TEXCOORD_0":6
					},
					"indices":7,
					"material":1
				},
				{
					"attributes":{
						"POSITION":8,
						"NORMAL":9,
						"TEXCOORD_0":10
					},
					"indices":11,
					"material":2
				},
				{
					"attributes":{
						"POSITION":12,
						"NORMAL":13,
						"TEXCOORD_0":14
					},
					"indices":15,
					"material":3
				},
				{
					"attributes":{
						"POSITION":16,
						"NORMAL":17,
						"TEXCOORD_0":18
					},
					"indices":19,
					"material":4
				},
				{
					"attributes":{
						"POSITION":20,
						"NORMAL":21,
						"TEXCOORD_0":22
					},
					"indices":23,
					"material":5
				}
			]
		}
	],
	"textures":[
		{
			"sampler":0,
			"source":0
		},
		{
			"sampler":0,
			"source":0
		},
		{
			"sampler":0,
			"source":0
		},
		{
			"sampler":0,
			"source":0
		},
		{
			"sampler":0,
			"source":0
		},
		{
			"sampler":0,
			"source":1
		}
	],
	"images":[
		{
			"mimeType":"image/png",
			"name":"mountain",
			"uri":"mountain.png"
		},
		{
			"mimeType":"image/png",
			"name":"clouds_crystals",
			"uri":"clouds_crystals.png"
		}
	],
	"accessors":[
		{
			"bufferView":0,
			"componentType":5126,
			"count":496,
			"max":[
				7.85052490234375,
				10.300084114074707,
				-1.4210798740386963
			],
			"min":[
				-5.943276405334473,
				4.8577117919921875,
				-4.946530342102051
			],
			"type":"VEC3"
		},
		{
			"bufferView":1,
			"componentType":5126,
			"count":496,
			"type":"VEC3"
		},
		{
			"bufferView":2,
			"componentType":5126,
			"count":496,
			"type":"VEC2"
		},
		{
			"bufferView":3,
			"componentType":5123,
			"count":816,
			"type":"SCALAR"
		},
		{
			"bufferView":4,
			"componentType":5126,
			"count":457,
			"max":[
				7.917863368988037,
				8.709955215454102,
				-0.4040605425834656
			],
			"min":[
				-7.895691871643066,
				3.709167957305908,
				-5.123770713806152
			],
			"type":"VEC3"
		},
		{
			"bufferView":5,
			"componentType":5126,
			"count":457,
			"type":"VEC3"
		},
		{
			"bufferView":6,
			"componentType":5126,
			"count":457,
			"type":"VEC2"
		},
		{
			"bufferView":7,
			"componentType":5123,
			"count":714,
			"type":"SCALAR"
		},
		{
			"bufferView":8,
			"componentType":5126,
			"count":199,
			"max":[
				7.944987773895264,
				1.4309372901916504,
				3.720362424850464
			],
			"min":[
				-9.104517936706543,
				-2.176875114440918,
				-0.4228145182132721
			],
			"type":"VEC3"
		},
		{
			"bufferView":9,
			"componentType":5126,
			"count":199,
			"type":"VEC3"
		},
		{
			"bufferView":10,
			"componentType":5126,
			"count":199,
			"type":"VEC2"
		},
		{
			"bufferView":11,
			"componentType":5123,
			"count":285,
			"type":"SCALAR"
		},
		{
			"bufferView":12,
			"componentType":5126,
			"count":144,
			"max":[
				7.9060282707214355,
				4.802074432373047,
				1.4735057353973389
			],
			"min":[
				-9.016347885131836,
				-2.176875114440918,
				-2.251309871673584
			],
			"type":"VEC3"
		},
		{
			"bufferView":13,
			"componentType":5126,
			"count":144,
			"type":"VEC3"
		},
		{
			"bufferView":14,
			"componentType":5126,
			"count":144,
			"type":"VEC2"
		},
		{
			"bufferView":15,
			"componentType":5123,
			"count":180,
			"type":"SCALAR"
		},
		{
			"bufferView":16,
			"componentType":5126,
			"count":254,
			"max":[
				7.917863368988037,
				7.06129264831543,
				0.32173681259155273
			],
			"min":[
				-8.926104545593262,
				-2.185105323791504,
				-5.164452075958252
			],
			"type":"VEC3"
		},
		{
			"bufferView":17,
			"componentType":5126,
			"count":254,
			"type":"VEC3"
		},
		{
			"bufferView":18,
			"componentType":5126,
			"count":254,
			"type":"VEC2"
		},
		{
			"bufferView":19,
			"componentType":5123,
			"count":408,
			"type":"SCALAR"
		},
		{
			"bufferView":20,
			"componentType":5126,
			"count":378,
			"max":[
				4.197902679443359,
				-0.4047962427139282,
				2.2881758213043213
			],
			"min":[
				3.020556688308716,
				-1.8163663148880005,
				-0.4969780445098877
			],
			"type":"VEC3"
		},
		{
			"bufferView":21,
			"componentType":5126,
			"count":378,
			"type":"VEC3"
		},
		{
			"bufferView":22,
			"componentType":5126,
			"count":378,
			"type":"VEC2"
		},
		{
			"bufferView":23,
			"componentType":5123,
			"count":378,
			"type":"SCALAR"
		}
	],
	"bufferViews":[
		{
			"buffer":0,
			"byteLength":5952,
			"byteOffset":0,
			"target":34962
		},
		{
			"buffer":0,
			"byteLength":5952,
			"byteOffset":5952,
			"target":34962
		},
		{
			"buffer":0,
			"byteLength":3968,
			"byteOffset":11904,
			"target":34962
		},
		{
			"buffer":0,
			"byteLength":1632,
			"byteOffset":15872,
			"target":34963
		},
		{
			"buffer":0,
			"byteLength":5484,
			"byteOffset":17504,
			"target":34962
		},
		{
			"buffer":0,
			"byteLength":5484,
			"byteOffset":22988,
			"target":34962
		},
		{
			"buffer":0,
			"byteLength":3656,
			"byteOffset":28472,
			"target":34962
		},
		{
			"buffer":0,
			"byteLength":1428,
			"byteOffset":32128,
			"target":34963
		},
		{
			"buffer":0,
			"byteLength":2388,
			"byteOffset":33556,
			"target":34962
		},
		{
			"buffer":0,
			"byteLength":2388,
			"byteOffset":35944,
			"target":34962
		},
		{
			"buffer":0,
			"byteLength":1592,
			"byteOffset":38332,
			"target":34962
		},
		{
			"buffer":0,
			"byteLength":570,
			"byteOffset":39924,
			"target":34963
		},
		{
			"buffer":0,
			"byteLength":1728,
			"byteOffset":40496,
			"target":34962
		},
		{
			"buffer":0,
			"byteLength":1728,
			"byteOffset":42224,
			"target":34962
		},
		{
			"buffer":0,
			"byteLength":1152,
			"byteOffset":43952,
			"target":34962
		},
		{
			"buffer":0,
			"byteLength":360,
			"byteOffset":45104,
			"target":34963
		},
		{
			"buffer":0,
			"byteLength":3048,
			"byteOffset":45464,
			"target":34962
		},
		{
			"buffer":0,
			"byteLength":3048,
			"byteOffset":48512,
			"target":34962
		},
		{
			"buffer":0,
			"byteLength":2032,
			"byteOffset":51560,
			"target":34962
		},
		{
			"buffer":0,
			"byteLength":816,
			"byteOffset":53592,
			"target":34963
		},
		{
			"buffer":0,
			"byteLength":4536,
			"byteOffset":54408,
			"target":34962
		},
		{
			"buffer":0,
			"byteLength":4536,
			"byteOffset":58944,
			"target":34962
		},
		{
			"buffer":0,
			"byteLength":3024,
			"byteOffset":63480,
			"target":34962
		},
		{
			"buffer":0,
			"byteLength":756,
			"byteOffset":66504,
			"target":34963
		}
	],
	"samplers":[
		{
			"magFilter":9729,
			"minFilter":9987
		}
	],
	"buffers":[
		{
			"byteLength":67260,
			"uri":"scene2.bin"
		}
	]
}
