{
	"asset":{
		"generator":"Khronos glTF Blender I/O v5.1.19",
		"version":"2.0"
	},
	"scene":0,
	"scenes":[
		{
			"name":"Scene",
			"nodes":[
				0
			]
		}
	],
	"nodes":[
		{
			"mesh":0,
			"name":"Object_6",
			"rotation":[
				-0.70710688829422,
				0,
				0,
				0.7071066498756409
			]
		}
	],
	"materials":[
		{
			"doubleSided":true,
			"name":"Material.040",
			"pbrMetallicRoughness":{
				"baseColorTexture":{
					"index":0
				},
				"metallicFactor":0,
				"roughnessFactor":0.5
			}
		}
	],
	"meshes":[
		{
			"name":"Object_4",
			"primitives":[
				{
					"attributes":{
						"POSITION":0,
						"NORMAL":1,
						"TEXCOORD_0":2
					},
					"indices":3,
					"material":0
				}
			]
		}
	],
	"textures":[
		{
			"sampler":0,
			"source":0
		}
	],
	"images":[
		{
			"mimeType":"image/png",
			"name":"mountain_baked",
			"uri":"mountain_baked.png"
		}
	],
	"accessors":[
		{
			"bufferView":0,
			"componentType":5126,
			"count":5181,
			"max":[
				5.632906436920166,
				4.631239891052246,
				5.933259010314941
			],
			"min":[
				-7.771154880523682,
				-4.466862678527832,
				-3.9473257064819336
			],
			"type":"VEC3"
		},
		{
			"bufferView":1,
			"componentType":5126,
			"count":5181,
			"type":"VEC3"
		},
		{
			"bufferView":2,
			"componentType":5126,
			"count":5181,
			"type":"VEC2"
		},
		{
			"bufferView":3,
			"componentType":5123,
			"count":5310,
			"type":"SCALAR"
		}
	],
	"bufferViews":[
		{
			"buffer":0,
			"byteLength":62172,
			"byteOffset":0,
			"target":34962
		},
		{
			"buffer":0,
			"byteLength":62172,
			"byteOffset":62172,
			"target":34962
		},
		{
			"buffer":0,
			"byteLength":41448,
			"byteOffset":124344,
			"target":34962
		},
		{
			"buffer":0,
			"byteLength":10620,
			"byteOffset":165792,
			"target":34963
		}
	],
	"samplers":[
		{
			"magFilter":9729,
			"minFilter":9987
		}
	],
	"buffers":[
		{
			"byteLength":176412,
			"uri":"scene.bin"
		}
	]
}
