{
	"asset":{
		"generator":"Khronos glTF Blender I/O v5.1.19",
		"version":"2.0"
	},
	"extensionsUsed":[
		"KHR_materials_specular"
	],
	"scene":0,
	"scenes":[
		{
			"name":"Scene",
			"nodes":[
				0
			]
		}
	],
	"nodes":[
		{
			"mesh":0,
			"name":"camp_fire",
			"rotation":[
				0.7071068286895752,
				0,
				0,
				0.7071068286895752
			]
		}
	],
	"materials":[
		{
			"doubleSided":true,
			"extensions":{
				"KHR_materials_specular":{
					"specularFactor":0
				}
			},
			"name":"camp_fire",
			"pbrMetallicRoughness":{
				"baseColorTexture":{
					"index":0
				},
				"metallicFactor":0
			}
		}
	],
	"meshes":[
		{
			"name":"camp_fire",
			"primitives":[
				{
					"attributes":{
						"POSITION":0,
						"NORMAL":1,
						"TEXCOORD_0":2
					},
					"indices":3,
					"material":0
				}
			]
		}
	],
	"textures":[
		{
			"sampler":0,
			"source":0
		}
	],
	"images":[
		{
			"mimeType":"image/png",
			"name":"Camp fire",
			"uri":"Camp%20fire.png"
		}
	],
	"accessors":[
		{
			"bufferView":0,
			"componentType":5126,
			"count":2463,
			"max":[
				1.4337869882583618,
				1.4423660039901733,
				0.09086199849843979
			],
			"min":[
				-1.4111089706420898,
				-1.4682749509811401,
				-0.6976979970932007
			],
			"type":"VEC3"
		},
		{
			"bufferView":1,
			"componentType":5126,
			"count":2463,
			"type":"VEC3"
		},
		{
			"bufferView":2,
			"componentType":5126,
			"count":2463,
			"type":"VEC2"
		},
		{
			"bufferView":3,
			"componentType":5123,
			"count":3471,
			"type":"SCALAR"
		}
	],
	"bufferViews":[
		{
			"buffer":0,
			"byteLength":29556,
			"byteOffset":0,
			"target":34962
		},
		{
			"buffer":0,
			"byteLength":29556,
			"byteOffset":29556,
			"target":34962
		},
		{
			"buffer":0,
			"byteLength":19704,
			"byteOffset":59112,
			"target":34962
		},
		{
			"buffer":0,
			"byteLength":6942,
			"byteOffset":78816,
			"target":34963
		}
	],
	"samplers":[
		{
			"magFilter":9729,
			"minFilter":9987
		}
	],
	"buffers":[
		{
			"byteLength":85760,
			"uri":"scene.bin"
		}
	]
}
