{
	"asset":{
		"generator":"Khronos glTF Blender I/O v5.1.19",
		"version":"2.0"
	},
	"extensionsUsed":[
		"KHR_materials_emissive_strength"
	],
	"scene":0,
	"scenes":[
		{
			"name":"Scene",
			"nodes":[
				0
			]
		}
	],
	"nodes":[
		{
			"mesh":0,
			"name":"Rock Type2 04.002"
		}
	],
	"materials":[
		{
			"doubleSided":true,
			"emissiveFactor":[
				1,
				1,
				1
			],
			"emissiveTexture":{
				"index":0
			},
			"extensions":{
				"KHR_materials_emissive_strength":{
					"emissiveStrength":1.9999998807907104
				}
			},
			"name":"Flame.001",
			"pbrMetallicRoughness":{
				"baseColorTexture":{
					"index":1
				},
				"metallicFactor":0,
				"roughnessFactor":0.5
			}
		}
	],
	"meshes":[
		{
			"name":"Cube.002",
			"primitives":[
				{
					"attributes":{
						"POSITION":0,
						"NORMAL":1,
						"TEXCOORD_0":2
					},
					"indices":3,
					"material":0
				}
			]
		}
	],
	"textures":[
		{
			"sampler":0,
			"source":0
		},
		{
			"sampler":0,
			"source":0
		}
	],
	"images":[
		{
			"mimeType":"image/png",
			"name":"flame_baked",
			"uri":"flame_baked.png"
		}
	],
	"accessors":[
		{
			"bufferView":0,
			"componentType":5126,
			"count":3162,
			"max":[
				0.35814130306243896,
				0.7058334350585938,
				0.345916211605072
			],
			"min":[
				-0.34924986958503723,
				-0.32395273447036743,
				-0.3281363248825073
			],
			"type":"VEC3"
		},
		{
			"bufferView":1,
			"componentType":5126,
			"count":3162,
			"type":"VEC3"
		},
		{
			"bufferView":2,
			"componentType":5126,
			"count":3162,
			"type":"VEC2"
		},
		{
			"bufferView":3,
			"componentType":5123,
			"count":16704,
			"type":"SCALAR"
		}
	],
	"bufferViews":[
		{
			"buffer":0,
			"byteLength":37944,
			"byteOffset":0,
			"target":34962
		},
		{
			"buffer":0,
			"byteLength":37944,
			"byteOffset":37944,
			"target":34962
		},
		{
			"buffer":0,
			"byteLength":25296,
			"byteOffset":75888,
			"target":34962
		},
		{
			"buffer":0,
			"byteLength":33408,
			"byteOffset":101184,
			"target":34963
		}
	],
	"samplers":[
		{
			"magFilter":9729,
			"minFilter":9987
		}
	],
	"buffers":[
		{
			"byteLength":134592,
			"uri":"scene.bin"
		}
	]
}
